<svg xmlns="http://www.w3.org/2000/svg" xmlns:xlink="http://www.w3.org/1999/xlink" version="1.0" x="0" y="0" width="2400" height="714.8968734916924" viewBox="45.498802490234375 87.91436798095702 249.00239501953126 74.17126403808594" preserveAspectRatio="xMidYMid meet" color-interpolation-filters="sRGB"><g><defs><linearGradient id="92" x1="0%" y1="0%" x2="100%" y2="0%"><stop offset="0%" stop-color="#fa71cd"></stop> <stop offset="100%" stop-color="#9b59b6"></stop></linearGradient><linearGradient id="93" x1="0%" y1="0%" x2="100%" y2="0%"><stop offset="0%" stop-color="#f9d423"></stop> <stop offset="100%" stop-color="#f83600"></stop></linearGradient><linearGradient id="94" x1="0%" y1="0%" x2="100%" y2="0%"><stop offset="0%" stop-color="#0064d2"></stop> <stop offset="100%" stop-color="#1cb0f6"></stop></linearGradient><linearGradient id="95" x1="0%" y1="0%" x2="100%" y2="0%"><stop offset="0%" stop-color="#f00978"></stop> <stop offset="100%" stop-color="#3f51b1"></stop></linearGradient><linearGradient id="96" x1="0%" y1="0%" x2="100%" y2="0%"><stop offset="0%" stop-color="#7873f5"></stop> <stop offset="100%" stop-color="#ec77ab"></stop></linearGradient><linearGradient id="97" x1="0%" y1="0%" x2="100%" y2="0%"><stop offset="0%" stop-color="#f9d423"></stop> <stop offset="100%" stop-color="#e14fad"></stop></linearGradient><linearGradient id="98" x1="0%" y1="0%" x2="100%" y2="0%"><stop offset="0%" stop-color="#009efd"></stop> <stop offset="100%" stop-color="#2af598"></stop></linearGradient><linearGradient id="99" x1="0%" y1="0%" x2="100%" y2="0%"><stop offset="0%" stop-color="#ffcc00"></stop> <stop offset="100%" stop-color="#00b140"></stop></linearGradient><linearGradient id="100" x1="0%" y1="0%" x2="100%" y2="0%"><stop offset="0%" stop-color="#d51007"></stop> <stop offset="100%" stop-color="#ff8177"></stop></linearGradient><linearGradient id="102" x1="0%" y1="0%" x2="100%" y2="0%"><stop offset="0%" stop-color="#a2b6df"></stop> <stop offset="100%" stop-color="#0c3483"></stop></linearGradient><linearGradient id="103" x1="0%" y1="0%" x2="100%" y2="0%"><stop offset="0%" stop-color="#7ac5d8"></stop> <stop offset="100%" stop-color="#eea2a2"></stop></linearGradient><linearGradient id="104" x1="0%" y1="0%" x2="100%" y2="0%"><stop offset="0%" stop-color="#00ecbc"></stop> <stop offset="100%" stop-color="#007adf"></stop></linearGradient><linearGradient id="105" x1="0%" y1="0%" x2="100%" y2="0%"><stop offset="0%" stop-color="#b88746"></stop> <stop offset="100%" stop-color="#fdf5a6"></stop></linearGradient></defs><g fill="#225699" class="icon-text-wrapper icon-svg-group iconsvg" transform="translate(47.94000244140625,90.3555679321289)"><g class="iconsvg-imagesvg" transform="translate(0,0)"><g><rect fill="#225699" fill-opacity="0" stroke-width="2" x="0" y="0" width="60" height="69.28886527934961" class="image-rect"></rect> <svg x="0" y="0" width="60" height="69.28886527934961" filtersec="colorsb4857764409" class="image-svg-svg primary" style="overflow: visible;"><svg xmlns="http://www.w3.org/2000/svg" viewBox="0 0 56.650001525878906 65.41999816894531"><g id="图层_2"><g id="Vrstva_1"><polygon points="16.73 39.4 16.73 26.02 16.73 26.02 0 16.35 0 49.06 16.73 39.4 16.73 39.4" fill="#47b3bb"></polygon><polygon points="0 16.35 16.73 26.02 28.32 19.33 39.92 26.02 56.65 16.35 28.32 0 0 16.35" fill="#225699"></polygon><polygon points="28.32 46.09 16.73 39.4 0 49.06 28.32 65.42 56.65 49.06 39.92 39.4 28.32 46.09" fill="#247ab8"></polygon><polygon points="39.92 26.02 39.92 39.4 39.92 39.4 56.65 49.06 56.65 16.35 39.92 26.02 39.92 26.02" fill="#47b3bb"></polygon></g></g></svg></svg> </g></g> <g transform="translate(67,13.694429397583008)"><g fill-rule="" class="tp-name iconsvg-namesvg"><g transform="scale(1)"><g><path d="M1.58-15.64C1.58-5.06 8.31 0.37 17.73 0.37 22.23 0.37 26.4-0.93 29.23-2.92L27.75-8.45C25.52-6.77 22.04-5.43 18.33-5.43 12.25-5.43 8.31-9.23 8.31-15.64 8.31-21.9 12.25-25.71 17.31-25.71 18.98-25.71 20.56-25.61 22-25.38L22.55-17.68 28.82-17.68 28.82-29.56C25.43-30.72 22.23-31.46 17.45-31.46 8.35-31.46 1.58-26.08 1.58-15.64ZM31.6-12.02C31.6-4.04 35.96 0.37 41.95 0.37 44.92 0.37 47.24-0.56 48.96-2.41L48.96 0 58.33 0 58.33-4.73 55.27-4.73 55.27-23.85 48.96-23.85 48.96-21.39C47.33-23.29 44.97-24.22 41.95-24.22 35.96-24.22 31.6-19.81 31.6-12.02ZM38.1-11.88C38.1-16.15 40.51-18.61 43.85-18.61 46.26-18.61 48.21-17.17 48.96-14.76L48.96-8.86C48.26-6.5 46.26-5.06 43.85-5.06 40.51-5.06 38.1-7.61 38.1-11.88ZM59.3-19.16L62.32-19.16 62.32 3.62 59.3 3.62 59.3 8.31 71.69 8.31 71.69 3.62 68.63 3.62 68.63-2.55C70.44-0.6 72.81 0.37 75.73 0.37 81.67 0.37 85.99-4.04 85.99-12.02 85.99-19.81 81.62-24.22 75.68-24.22 72.76-24.22 70.44-23.25 68.63-21.3L68.63-23.85 59.3-23.85ZM68.63-14.62C69.33-17.17 71.23-18.61 73.78-18.61 77.12-18.61 79.54-16.15 79.54-11.88 79.54-7.61 77.12-5.06 73.78-5.06 71.37-5.06 69.33-6.5 68.63-8.96ZM87.33-23.85L87.33-19.16 90.44-19.16 90.44-4.73 87.33-4.73 87.33 0 99.86 0 99.86-4.73 96.75-4.73 96.75-23.85ZM88.77-30.16C88.77-27.8 90.53-26.68 93.32-26.68 96.1-26.68 97.91-27.8 97.91-30.16 97.91-32.44 96.1-33.55 93.32-33.55 90.53-33.55 88.77-32.44 88.77-30.16ZM115.17-31.42C109.61-31.42 102.46-29.7 102.46-22.78 102.46-12.39 119.58-13.97 119.58-8.82 119.58-5.66 116.84-4.55 112.62-4.55 111.28-4.55 109.93-4.69 108.63-4.92L108.17-10.35 102.51-10.35 102.51-1.25C105.8-0.42 110.07 0.28 113.04 0.28 122.13 0.32 126.31-3.16 126.31-8.77 126.31-19.4 109.23-17.45 109.23-23.43 109.23-25.99 111.69-26.77 115.13-26.77 116.61-26.77 118.1-26.64 119.54-26.4L120-20.88 125.38-20.88 125.38-29.98C122.65-30.72 118.84-31.42 115.17-31.42ZM131.79-19.16L138.75 0 140.79 0 140.37 1.35C139.86 2.6 138.75 3.29 137.45 3.34 136.15 3.34 134.9 3.06 133.64 2.55L132.58 7.38C134.25 7.94 135.92 8.35 138.14 8.35 142.46 8.31 144.45 5.85 145.8 2.09L153.5-19.16 157.08-19.16 157.08-23.85 144.73-23.85 144.73-19.16 147.29-19.16 142.6-5.43 138.05-19.16 140.56-19.16 140.56-23.85 128.21-23.85 128.21-19.16ZM169.42-24.22C162.55-24.22 159.16-21.53 159.16-17.22 159.16-9.23 172.3-10.12 172.3-6.54 172.3-4.69 170.86-4.18 168.49-4.18 167.05-4.18 165.8-4.41 164.45-4.73L164.13-8.21 159.35-8.21 159.35-1.35C161.95-0.46 165.48 0.37 169.19 0.37 176.01 0.37 178.7-2.18 178.7-6.45 178.7-14.52 165.57-13.6 165.57-17.63 165.57-19.35 167.29-19.81 169.88-19.81 171-19.81 172.02-19.77 172.99-19.44L173.32-15.96 177.82-15.96 177.82-22.6C176.01-23.34 172.95-24.22 169.42-24.22Z" transform="translate(-1.5799999237060547, 33.54999923706055)"></path></g> </g></g> </g></g><defs v-gra="od"></defs></g></svg>